<svg width="1200" height="630" viewBox="0 0 1200 630" xmlns="http://www.w3.org/2000/svg">
  <defs>
    <linearGradient id="bg" x1="0" y1="0" x2="0" y2="1">
      <stop offset="0%" stop-color="#0d1117"/>
      <stop offset="100%" stop-color="#111827"/>
    </linearGradient>
    <radialGradient id="glow1" cx="25%" cy="45%" r="55%">
      <stop offset="0%" stop-color="#1d3a6e" stop-opacity="0.45"/>
      <stop offset="100%" stop-color="#0d1117" stop-opacity="0"/>
    </radialGradient>
    <radialGradient id="glow2" cx="82%" cy="55%" r="42%">
      <stop offset="0%" stop-color="#1a3a5c" stop-opacity="0.28"/>
      <stop offset="100%" stop-color="#0d1117" stop-opacity="0"/>
    </radialGradient>
    <linearGradient id="textgrad" x1="0" y1="0" x2="1" y2="0">
      <stop offset="0%" stop-color="#60a5fa"/>
      <stop offset="100%" stop-color="#93c5fd"/>
    </linearGradient>
    <filter id="softglow" x="-20%" y="-20%" width="140%" height="140%">
      <feGaussianBlur stdDeviation="5" result="blur"/>
      <feMerge><feMergeNode in="blur"/><feMergeNode in="SourceGraphic"/></feMerge>
    </filter>
  </defs>

  <!-- Background -->
  <rect width="1200" height="630" fill="url(#bg)"/>
  <rect width="1200" height="630" fill="url(#glow1)"/>
  <rect width="1200" height="630" fill="url(#glow2)"/>

  <!-- Subtle grid -->
  <g opacity="0.04" stroke="#60a5fa" stroke-width="1">
    <line x1="0" y1="90" x2="1200" y2="90"/>
    <line x1="0" y1="180" x2="1200" y2="180"/>
    <line x1="0" y1="270" x2="1200" y2="270"/>
    <line x1="0" y1="360" x2="1200" y2="360"/>
    <line x1="0" y1="450" x2="1200" y2="450"/>
    <line x1="0" y1="540" x2="1200" y2="540"/>
    <line x1="150" y1="0" x2="150" y2="630"/>
    <line x1="300" y1="0" x2="300" y2="630"/>
    <line x1="450" y1="0" x2="450" y2="630"/>
    <line x1="600" y1="0" x2="600" y2="630"/>
    <line x1="750" y1="0" x2="750" y2="630"/>
    <line x1="900" y1="0" x2="900" y2="630"/>
    <line x1="1050" y1="0" x2="1050" y2="630"/>
  </g>

  <!-- Decorative graph edges (right side) -->
  <g opacity="0.13">
    <line x1="830" y1="155" x2="940" y2="105" stroke="#3b82f6" stroke-width="1.5"/>
    <line x1="830" y1="155" x2="985" y2="225" stroke="#3b82f6" stroke-width="1.5"/>
    <line x1="830" y1="155" x2="745" y2="275" stroke="#3b82f6" stroke-width="1.5"/>
    <line x1="940" y1="105" x2="1050" y2="148" stroke="#3b82f6" stroke-width="1.5"/>
    <line x1="985" y1="225" x2="1050" y2="148" stroke="#3b82f6" stroke-width="1.5"/>
    <line x1="745" y1="275" x2="825" y2="370" stroke="#3b82f6" stroke-width="1.5"/>
    <line x1="985" y1="225" x2="915" y2="338" stroke="#3b82f6" stroke-width="1.5"/>
    <line x1="745" y1="275" x2="662" y2="198" stroke="#3b82f6" stroke-width="1.5"/>
    <line x1="825" y1="370" x2="915" y2="338" stroke="#3b82f6" stroke-width="1.5"/>
    <line x1="825" y1="370" x2="782" y2="462" stroke="#3b82f6" stroke-width="1.5"/>
    <line x1="915" y1="338" x2="1015" y2="398" stroke="#3b82f6" stroke-width="1.5"/>
    <line x1="1050" y1="148" x2="1108" y2="240" stroke="#3b82f6" stroke-width="1.5"/>
    <line x1="1108" y1="240" x2="1015" y2="398" stroke="#3b82f6" stroke-width="1.5"/>
  </g>

  <!-- Graph nodes -->
  <g filter="url(#softglow)">
    <circle cx="830" cy="155" r="13" fill="#3b82f6" opacity="0.95"/>
    <circle cx="940" cy="105" r="9"  fill="#3b82f6" opacity="0.75"/>
    <circle cx="985" cy="225" r="9"  fill="#3b82f6" opacity="0.75"/>
    <circle cx="1050" cy="148" r="7" fill="#60a5fa" opacity="0.6"/>
    <circle cx="745" cy="275" r="11" fill="#3b82f6" opacity="0.85"/>
    <circle cx="662" cy="198" r="7"  fill="#60a5fa" opacity="0.55"/>
    <circle cx="825" cy="370" r="10" fill="#3b82f6" opacity="0.8"/>
    <circle cx="915" cy="338" r="8"  fill="#3b82f6" opacity="0.7"/>
    <circle cx="782" cy="462" r="6"  fill="#60a5fa" opacity="0.5"/>
    <circle cx="1015" cy="398" r="7" fill="#3b82f6" opacity="0.6"/>
    <circle cx="1108" cy="240" r="8" fill="#3b82f6" opacity="0.65"/>
  </g>

  <!-- ═══ LOGO ICON BOX ═══ -->
  <!-- Dark card matching site nav icon style -->
  <rect x="80" y="178" width="76" height="76" rx="18" fill="#1e293b"/>
  <rect x="80" y="178" width="76" height="76" rx="18" fill="none" stroke="#334155" stroke-width="1.2"/>

  <!-- Actual RepoGraph SVG icon, scaled and centered in the 76×76 box -->
  <!-- Original viewBox 0 0 24 24, scaled to ~44px (factor ≈ 1.833), offset to center -->
  <g transform="translate(96, 194) scale(1.833)" fill="white" opacity="0.95">
    <path d="M3.5 12c.015 0 .028-.004.042-.004l.94 4.226a2.497 2.497 0 1 0 3.345 3.173l7.182 1.197a2.491 2.491 0 1 0 3.527-2.36l1.902-8.238c.021 0 .04.006.062.006a2.5 2.5 0 1 0-2.03-3.95l-4.53-2.012a2.5 2.5 0 1 0-4.692.528L5.151 7.637A2.495 2.495 0 1 0 3.5 12zm1.018-.222a2.51 2.51 0 0 0 1.26-1.26l4.226.94c0 .014-.004.027-.004.042a2.484 2.484 0 0 0 .416 1.377l-3.54 3.54A2.483 2.483 0 0 0 5.5 16c-.014 0-.028.004-.042.004zm7.184-2.635a2.501 2.501 0 0 0-1.48 1.339l-4.226-.94c0-.014.004-.027.004-.042a2.472 2.472 0 0 0-.247-1.065l4.096-3.072a2.477 2.477 0 0 0 1.457.617zM14 11v1a1 1 0 0 1-1 1h-1a1 1 0 0 1-1-1v-1a1 1 0 0 1 1-1h1a1 1 0 0 1 1 1zm1.173 8.605L7.99 18.408a2.483 2.483 0 0 0-.407-1.285l3.54-3.54a2.405 2.405 0 0 0 2.123.29l2.632 4.74a2.494 2.494 0 0 0-.706.992zM6 20H5a1 1 0 0 1-1-1v-1a1 1 0 0 1 1-1h1a1 1 0 0 1 1 1v1a1 1 0 0 1-1 1zm13 0v1a1 1 0 0 1-1 1h-1a1 1 0 0 1-1-1v-1a1 1 0 0 1 1-1h1a1 1 0 0 1 1 1zm-1.438-1.994c-.02 0-.04-.006-.062-.006a2.466 2.466 0 0 0-.747.127l-2.632-4.74a2.411 2.411 0 0 0 .784-2.53l3.638-1.82a2.502 2.502 0 0 0 .92.731zM20 6h1a1 1 0 0 1 1 1v1a1 1 0 0 1-1 1h-1a1 1 0 0 1-1-1V7a1 1 0 0 1 1-1zm-1.939.963a2.301 2.301 0 0 0 .034 1.18l-3.638 1.82a2.483 2.483 0 0 0-1.763-.943l-.396-3.163a2.499 2.499 0 0 0 1.231-.908zM10 4V3a1 1 0 0 1 1-1h1a1 1 0 0 1 1 1v1a1 1 0 0 1-1 1h-1a1 1 0 0 1-1-1zM2 9a1 1 0 0 1 1-1h1a1 1 0 0 1 1 1v1a1 1 0 0 1-1 1H3a1 1 0 0 1-1-1z"/>
  </g>

  <!-- Wordmark -->
  <text x="172" y="218" font-family="-apple-system, BlinkMacSystemFont, 'Segoe UI', sans-serif" font-size="28" font-weight="700" fill="#f1f5f9" letter-spacing="-0.5">RepoGraph AI</text>
  <text x="172" y="244" font-family="-apple-system, BlinkMacSystemFont, 'Segoe UI', sans-serif" font-size="13.5" fill="#475569" letter-spacing="0.1">VS Code Extension  ·  Free &amp; Open Source  ·  MIT License</text>

  <!-- Thin divider -->
  <rect x="80" y="274" width="530" height="1" fill="#1e3a5f" opacity="0.8"/>

  <!-- Main headline — white -->
  <text x="80" y="348" font-family="-apple-system, BlinkMacSystemFont, 'Segoe UI', sans-serif" font-size="55" font-weight="800" fill="#f1f5f9" letter-spacing="-1.5">Understand any codebase</text>

  <!-- Blue gradient line — matches site .hi span -->
  <text x="80" y="418" font-family="-apple-system, BlinkMacSystemFont, 'Segoe UI', sans-serif" font-size="55" font-weight="800" fill="url(#textgrad)" letter-spacing="-1.5">in minutes, not days</text>

  <!-- Sub — muted gray #94a3b8 -->
  <text x="80" y="472" font-family="-apple-system, BlinkMacSystemFont, 'Segoe UI', sans-serif" font-size="19" fill="#94a3b8">Visual dependency graphs · AI summaries · Live codebase Q&amp;A</text>

  <!-- Badges -->
  <rect x="80"  y="504" width="128" height="34" rx="17" fill="#0f1f3d"/>
  <rect x="80"  y="504" width="128" height="34" rx="17" fill="none" stroke="#1e3a6e" stroke-width="1"/>
  <text x="144" y="526" font-family="-apple-system, BlinkMacSystemFont, sans-serif" font-size="12.5" fill="#60a5fa" text-anchor="middle" font-weight="600">20+ Languages</text>

  <rect x="222" y="504" width="128" height="34" rx="17" fill="#0f1f3d"/>
  <rect x="222" y="504" width="128" height="34" rx="17" fill="none" stroke="#1e3a6e" stroke-width="1"/>
  <text x="286" y="526" font-family="-apple-system, BlinkMacSystemFont, sans-serif" font-size="12.5" fill="#60a5fa" text-anchor="middle" font-weight="600">5 AI Providers</text>

  <rect x="364" y="504" width="124" height="34" rx="17" fill="#0f1f3d"/>
  <rect x="364" y="504" width="124" height="34" rx="17" fill="none" stroke="#1e3a6e" stroke-width="1"/>
  <text x="426" y="526" font-family="-apple-system, BlinkMacSystemFont, sans-serif" font-size="12.5" fill="#60a5fa" text-anchor="middle" font-weight="600">Zero Telemetry</text>

  <rect x="502" y="504" width="114" height="34" rx="17" fill="#0f1f3d"/>
  <rect x="502" y="504" width="114" height="34" rx="17" fill="none" stroke="#1e3a6e" stroke-width="1"/>
  <text x="559" y="526" font-family="-apple-system, BlinkMacSystemFont, sans-serif" font-size="12.5" fill="#60a5fa" text-anchor="middle" font-weight="600">MIT License</text>

  <!-- ═══ AUTHOR NAME — bottom right, small and subtle ═══ -->
  <text x="1120" y="600" font-family="-apple-system, BlinkMacSystemFont, 'Segoe UI', sans-serif" font-size="13" fill="#334155" text-anchor="end" letter-spacing="0.2">by Kaushalendra Singh</text>
</svg>
